ply
format ascii 1.0
element face 0
property list uchar int vertex_indices
element vertex 951
property float x
property float y
property float z
property uchar diffuse_red
property uchar diffuse_green
property uchar diffuse_blue
end_header
2.094971e+00 -7.531232e-01 -6.111340e+00 177 153 53
2.095669e+00 -6.590556e-01 -6.128078e+00 215 190 72
1.820820e+00 -1.021734e+00 -6.667960e+00 204 181 69
2.087010e+00 -6.960086e-01 -6.136782e+00 216 192 82
1.824551e+00 -9.856175e-01 -6.676126e+00 40 28 0
-5.592375e-01 2.032538e+00 -9.776335e+00 29 26 27
-3.251630e+00 3.528609e+00 -1.189562e+01 133 53 23
-3.142587e+00 3.450001e+00 -1.174051e+01 141 75 64
-4.415911e+00 3.624305e+00 -1.158697e+01 132 77 67
-5.168158e+00 3.654869e+00 -1.132766e+01 115 40 24
2.180271e+00 -1.133219e+00 -5.851025e+00 212 157 54
2.180271e+00 -1.133219e+00 -5.851025e+00 212 157 54
-1.437685e+00 3.064882e+00 -1.104468e+01 66 18 8
-1.722875e+00 3.148728e+00 -1.102941e+01 97 45 18
-1.421762e+00 2.990657e+00 -1.118635e+01 72 24 13
2.247968e+00 1.551952e+00 -5.531655e+00 194 169 114
-1.796778e+00 3.143898e+00 -1.114826e+01 28 14 15
-1.759635e+00 3.033767e+00 -1.123289e+01 29 15 12
-1.714737e+00 3.024205e+00 -1.141708e+01 94 45 21
2.387434e+00 -3.795200e-01 -5.367278e+00 225 182 186
2.387434e+00 -3.795200e-01 -5.367278e+00 225 182 186
2.055448e+00 -7.120593e-01 -6.213545e+00 220 192 75
2.259250e+00 1.602461e+00 -5.528579e+00 192 142 49
2.385377e+00 -3.199401e-01 -5.368518e+00 234 182 181
2.342435e+00 9.987732e-01 -5.397430e+00 214 183 107
1.824551e+00 -9.856175e-01 -6.676126e+00 40 28 0
2.102406e+00 -5.870395e-01 -6.099896e+00 215 189 74
2.077825e+00 -7.635052e-01 -6.149065e+00 221 196 81
2.077825e+00 -7.635052e-01 -6.149065e+00 221 196 81
2.032660e+00 -8.156873e-01 -6.233303e+00 213 187 80
-1.289469e+00 2.961272e+00 -1.118275e+01 44 11 9
-7.497380e-01 5.110768e-01 -4.601676e+00 255 254 254
2.034354e+00 -9.289954e-01 -6.217307e+00 213 188 63
3.538584e-01 3.146772e+00 -1.029167e+01 14 14 13
-1.286951e+00 2.917064e+00 -1.124002e+01 66 29 12
6.717745e-01 1.654353e+00 -5.733225e+00 162 20 29
2.278634e+00 1.685741e+00 -5.466861e+00 192 163 77
2.336529e+00 1.283330e+00 -5.435606e+00 204 175 103
5.436582e-01 1.052377e+00 -5.530348e+00 145 33 57
-5.776649e-01 7.678165e-01 -4.583857e+00 221 159 171
5.820684e-01 9.690239e-01 -5.538672e+00 209 138 156
1.508651e+00 1.035023e+00 -5.206830e+00 159 96 109
-7.012830e-01 6.486918e-01 -4.582348e+00 236 199 216
-2.969563e-02 5.902830e-01 -5.342845e+00 209 177 194
1.392312e-01 5.994651e-01 -5.342629e+00 237 225 237
2.325211e+00 6.828535e-01 -5.462550e+00 216 181 106
6.589613e-01 -3.094612e-01 -5.510974e+00 188 26 46
6.589613e-01 -3.094612e-01 -5.510974e+00 188 26 46
2.407207e+00 -2.308303e-01 -5.290537e+00 216 77 126
2.087010e+00 -6.960086e-01 -6.136782e+00 216 192 82
1.970488e+00 -2.030236e+00 -1.162823e+01 62 50 54
1.855937e+00 -2.363953e+00 -1.203699e+01 97 86 100
2.041034e+00 -2.179827e+00 -1.134307e+01 106 93 111
1.226234e+00 -3.077900e+00 -1.404167e+01 74 67 78
2.215436e+00 -9.901455e-01 -5.810761e+00 197 196 105
2.261721e+00 -2.438671e+00 -1.093637e+01 75 68 81
2.414961e+00 -2.465423e+00 -1.028751e+01 106 99 115
2.414961e+00 -2.465423e+00 -1.028751e+01 106 99 115
1.175747e+00 -3.652758e+00 -1.402046e+01 40 33 39
1.797881e+00 -3.164026e+00 -1.224579e+01 76 72 86
2.364809e+00 -2.625247e+00 -1.057788e+01 73 58 66
1.931273e+00 -3.045062e+00 -1.184108e+01 89 85 100
1.941331e+00 -3.142297e+00 -1.193064e+01 56 49 62
2.375036e+00 -2.820355e+00 -1.043688e+01 57 46 59
1.930037e+00 -3.460189e+00 -1.189776e+01 52 47 69
2.245565e+00 -3.173430e+00 -1.089016e+01 87 83 99
2.099551e+00 -3.355059e+00 -1.135068e+01 88 81 96
2.438224e+00 -3.048722e+00 -1.026242e+01 69 59 74
2.469516e+00 -3.024827e+00 -1.020793e+01 117 106 126
2.307094e+00 -3.216444e+00 -1.070993e+01 53 46 61
2.608982e+00 -2.916633e+00 -9.803519e+00 78 70 91
2.325103e+00 -3.401771e+00 -1.074487e+01 99 95 118
2.378117e+00 -3.327673e+00 -1.055670e+01 106 98 119
2.450856e+00 -3.347818e+00 -1.028764e+01 115 112 131
2.364092e+00 -3.510593e+00 -1.053472e+01 99 95 113
2.663098e+00 -3.185995e+00 -9.664400e+00 112 106 124
2.149767e+00 -3.858878e+00 -1.118812e+01 50 45 58
2.020832e+00 1.840612e+00 -6.154044e+00 116 75 22
2.164506e+00 1.684521e+00 -5.906264e+00 191 165 111
5.781407e-01 1.342943e+00 -5.805518e+00 59 0 0
2.270779e+00 1.467213e+00 -5.550912e+00 200 170 99
2.299645e+00 1.444317e+00 -5.509349e+00 198 171 90
4.673528e-01 1.025169e+00 -5.518255e+00 156 20 54
-8.892348e-01 6.977854e-01 -4.549585e+00 204 140 157
8.005205e-02 8.933802e-01 -5.529908e+00 102 2 5
4.165315e-01 9.230943e-01 -5.512457e+00 197 134 154
-8.188104e-01 6.558139e-01 -4.572752e+00 232 173 197
-7.361648e-01 6.578379e-01 -4.580653e+00 241 217 230
-5.750099e-01 6.303320e-01 -4.558950e+00 217 156 171
1.960726e-01 6.310178e-01 -5.341593e+00 229 220 229
1.698297e-01 6.135156e-01 -5.345904e+00 233 219 230
2.322663e+00 6.612099e-01 -5.401144e+00 215 158 52
-4.087547e-01 3.662930e-01 -4.599499e+00 221 166 176
-7.560798e-01 2.879353e-01 -4.654761e+00 245 182 191
-3.629362e-01 3.017575e-01 -4.610969e+00 157 99 112
6.109630e-01 2.850178e-01 -5.618952e+00 212 37 58
-3.571621e-01 1.555227e-01 -4.656013e+00 157 101 113
-3.947497e-01 8.272993e-02 -4.702672e+00 219 170 182
-4.033103e-01 4.267941e-02 -4.732223e+00 226 178 187
9.537042e-01 7.118576e-02 -5.566336e+00 171 124 141
1.150439e+00 -1.638513e-01 -5.267442e+00 206 134 146
4.815145e-01 -2.895691e-01 -5.853752e+00 188 33 47
6.473553e-01 -3.355019e-01 -5.521185e+00 204 37 56
6.473553e-01 -3.355019e-01 -5.521185e+00 204 37 56
2.394812e+00 -3.161457e-01 -5.315276e+00 232 190 201
2.391929e+00 -3.656456e-01 -5.342295e+00 230 174 188
2.383545e+00 -4.427925e-01 -5.359941e+00 233 198 214
-2.868625e-01 -2.062924e+00 -1.258528e+01 121 96 106
2.367473e+00 -4.758798e-01 -5.416237e+00 235 186 196
1.749588e+00 -2.138869e+00 -1.230803e+01 62 47 48
2.042526e+00 -2.352647e+00 -1.138713e+01 63 47 58
2.248821e+00 -2.196305e+00 -1.073602e+01 119 118 135
2.206792e+00 -2.321403e+00 -1.091326e+01 124 120 135
2.206792e+00 -2.321403e+00 -1.091326e+01 124 120 135
1.844611e+00 -2.860107e+00 -1.206974e+01 56 45 55
1.657669e+00 -3.068642e+00 -1.266410e+01 54 48 60
1.555283e+00 -3.263865e+00 -1.316222e+01 81 74 84
1.437884e+00 -3.361931e+00 -1.341257e+01 47 38 45
1.182355e+00 -3.627220e+00 -1.418048e+01 57 53 64
2.331669e+00 -2.497094e+00 -1.050020e+01 64 53 67
2.474711e+00 -2.516783e+00 -1.009251e+01 67 55 65
1.721651e+00 -3.373140e+00 -1.247429e+01 96 91 106
2.323929e+00 -2.796072e+00 -1.061979e+01 57 46 52
1.304402e+00 -3.855729e+00 -1.374346e+01 44 38 49
2.223163e+00 -2.953314e+00 -1.092563e+01 108 100 118
2.023824e+00 -3.200158e+00 -1.147348e+01 91 78 87
1.634149e+00 -3.708491e+00 -1.282006e+01 42 35 47
2.459442e+00 -2.820923e+00 -1.013595e+01 103 99 121
1.595208e+00 -3.861617e+00 -1.294835e+01 36 26 32
2.423945e+00 -2.977129e+00 -1.031603e+01 101 92 109
2.064704e+00 -3.400421e+00 -1.142433e+01 39 35 50
2.129090e+00 -3.496228e+00 -1.120787e+01 53 51 64
2.257768e+00 -3.425789e+00 -1.090812e+01 57 46 60
2.234307e+00 -3.561091e+00 -1.103715e+01 81 79 96
2.421044e+00 -3.304915e+00 -1.037420e+01 101 97 119
2.714535e+00 -2.995641e+00 -9.423780e+00 53 44 58
2.744952e+00 -3.024571e+00 -9.371893e+00 78 67 82
2.605335e+00 -3.230155e+00 -9.869944e+00 61 53 71
2.835215e+00 -3.023008e+00 -9.119584e+00 123 117 137
7.514824e-01 1.612861e+00 -5.771442e+00 131 4 10
7.096880e-01 1.517243e+00 -5.788274e+00 113 5 7
9.699395e-01 1.530979e+00 -5.687064e+00 142 22 33
4.206452e-01 1.396788e+00 -5.706915e+00 99 2 3
6.062047e-01 1.428974e+00 -5.775550e+00 145 11 18
2.148085e+00 1.607762e+00 -5.888417e+00 191 163 109
2.148085e+00 1.607762e+00 -5.888417e+00 191 163 109
2.122497e+00 1.599179e+00 -5.937670e+00 181 130 43
2.250940e+00 1.563787e+00 -5.722988e+00 194 143 46
1.662166e-01 1.233052e+00 -5.627382e+00 149 14 20
2.757933e-01 1.215931e+00 -5.597121e+00 160 21 22
1.635815e+00 1.347390e+00 -5.436445e+00 69 30 30
1.635815e+00 1.347390e+00 -5.436445e+00 69 30 30
1.493162e+00 1.303278e+00 -5.354437e+00 94 50 54
-7.800704e-01 7.358082e-01 -4.548948e+00 175 107 129
-7.800704e-01 7.358082e-01 -4.548948e+00 175 107 129
-7.397167e-01 7.392848e-01 -4.551873e+00 178 107 123
-7.441994e-01 7.145465e-01 -4.546599e+00 228 165 173
-6.234695e-01 7.215753e-01 -4.559590e+00 225 172 181
1.266643e+00 1.075455e+00 -5.823429e+00 130 9 14
1.266643e+00 1.075455e+00 -5.823429e+00 130 9 14
2.051958e-04 8.412447e-01 -5.464135e+00 117 8 8
9.344924e-03 8.047196e-01 -5.465753e+00 163 21 33
6.607474e-02 7.941240e-01 -5.474481e+00 173 25 39
-5.083435e-01 6.343472e-01 -4.580266e+00 170 104 125
6.974314e-01 7.084897e-01 -5.482279e+00 193 28 44
-8.466088e-01 4.680570e-01 -4.609035e+00 168 156 199
-7.309466e-01 4.504959e-01 -4.594516e+00 165 217 254
8.940674e-01 6.437276e-01 -5.528781e+00 155 20 29
-8.899939e-01 4.085306e-01 -4.611008e+00 236 165 179
-3.910433e-01 3.849087e-01 -4.604895e+00 155 95 108
-3.457805e-01 3.406166e-01 -4.614301e+00 210 149 164
2.059330e+00 4.834469e-01 -6.189873e+00 124 82 37
-3.316980e-01 2.399137e-01 -4.634661e+00 224 163 173
2.367065e+00 4.553692e-01 -5.465065e+00 217 185 59
2.302461e+00 4.310568e-01 -5.528657e+00 217 189 124
6.916741e-01 9.383035e-02 -5.740735e+00 200 35 51
-7.157914e-01 -9.455567e-02 -4.994024e+00 251 253 253
1.130709e+00 -1.269105e-01 -5.286340e+00 206 142 144
2.132385e+00 -3.716651e-01 -6.030298e+00 229 197 56
2.132385e+00 -3.716651e-01 -6.030298e+00 229 197 56
1.840434e+00 -6.928547e-01 -6.353487e+00 193 138 145
2.370352e+00 -4.811723e-01 -5.364732e+00 221 198 215
2.370352e+00 -4.811723e-01 -5.364732e+00 221 198 215
2.048791e+00 -7.470128e-01 -6.223143e+00 217 191 83
2.083014e+00 -7.336526e-01 -6.145174e+00 214 191 78
2.058865e+00 -8.528107e-01 -6.184740e+00 212 189 69
1.927304e+00 -2.307749e+00 -1.171815e+01 51 42 44
2.001433e+00 -2.330760e+00 -1.156516e+01 62 46 53
-1.207409e+00 -2.802140e+00 -1.271117e+01 74 42 54
2.096496e+00 -2.304759e+00 -1.105315e+01 65 54 68
1.170240e+00 -3.408035e+00 -1.409509e+01 40 33 43
1.237063e+00 -3.441738e+00 -1.373603e+01 39 34 40
1.539369e+00 -3.526553e+00 -1.284506e+01 47 42 54
2.082243e+00 -3.150650e+00 -1.143216e+01 55 49 56
2.082243e+00 -3.150650e+00 -1.143216e+01 55 49 56
1.992526e+00 -3.242802e+00 -1.162812e+01 56 47 53
1.386734e+00 -4.060737e+00 -1.362224e+01 43 37 42
2.620799e+00 -2.753637e+00 -9.713525e+00 60 46 62
2.450611e+00 -3.195373e+00 -1.026851e+01 97 90 106
1.738554e+00 -4.354099e+00 -1.265994e+01 41 35 45
5.879691e-01 1.614717e+00 -5.921201e+00 155 16 33
2.182339e+00 1.568321e+00 -5.806727e+00 191 165 78
2.192744e-01 1.230401e+00 -5.600505e+00 157 17 29
1.525704e+00 1.233326e+00 -5.293157e+00 69 31 28
1.525704e+00 1.233326e+00 -5.293157e+00 69 31 28
-8.863682e-01 7.633085e-01 -4.565832e+00 133 74 96
-7.867130e-01 7.642548e-01 -4.555564e+00 226 167 179
-7.584136e-01 7.672516e-01 -4.561026e+00 224 166 176
-7.986848e-01 7.087557e-01 -4.561565e+00 226 164 177
-7.559080e-01 6.887686e-01 -4.575595e+00 226 155 169
-5.870454e-01 6.914602e-01 -4.562331e+00 233 177 193
-1.302835e-02 6.172335e-01 -5.374280e+00 108 10 22
9.062780e-01 6.129344e-01 -5.474050e+00 104 12 15
2.121402e+00 5.949057e-01 -6.137146e+00 194 162 102
1.421071e+00 4.541110e-01 -5.783594e+00 120 11 13
6.688467e-01 2.358063e-01 -5.606073e+00 114 5 13
9.496417e-01 2.565967e-01 -5.707688e+00 199 31 48
7.284268e-01 2.083861e-01 -5.625715e+00 110 14 20
1.093014e+00 1.481419e-01 -5.519659e+00 171 100 114
1.207150e+00 1.423062e-01 -5.471803e+00 94 36 40
9.473085e-01 3.547128e-02 -5.565351e+00 66 13 21
9.550206e-01 3.182983e-02 -5.454017e+00 170 108 123
5.705182e-01 -2.471642e-01 -5.631112e+00 188 32 46
1.102280e+00 -2.199595e-01 -5.325944e+00 220 155 163
1.994870e+00 -2.130656e+00 -1.146961e+01 54 41 42
1.486762e+00 -2.580469e+00 -1.240606e+01 110 83 65
1.532026e+00 -2.981516e+00 -1.302292e+01 60 47 59
1.712218e+00 -3.680754e+00 -1.252431e+01 10 10 12
1.712218e+00 -3.680754e+00 -1.252431e+01 10 10 12
2.144387e+00 -3.228007e+00 -1.121949e+01 52 41 50
7.287415e-01 1.648198e+00 -5.741757e+00 176 20 40
2.283725e+00 1.485048e+00 -5.512838e+00 199 144 53
2.283725e+00 1.485048e+00 -5.512838e+00 199 144 53
9.022371e-01 1.098443e+00 -5.654960e+00 103 3 5
-7.569907e-01 6.032602e-01 -4.482175e+00 179 225 255
-8.202067e-01 4.926648e-01 -4.591588e+00 181 230 255
-4.688230e-01 5.113860e-01 -4.643380e+00 235 181 195
1.810864e-01 5.870523e-01 -5.364188e+00 82 11 26
1.025611e+00 6.593007e-01 -5.475851e+00 44 10 8
-3.546970e-01 3.963193e-01 -4.594392e+00 209 148 163
-3.762958e-01 3.515816e-01 -4.593395e+00 156 99 112
2.340231e+00 4.902616e-01 -5.467846e+00 217 189 124
9.498006e-01 2.003178e-01 -5.659812e+00 97 4 5
2.112499e+00 -2.368554e-01 -6.087438e+00 223 187 47
1.962257e+00 -7.597182e-01 -6.396817e+00 214 187 67
2.026314e+00 -1.071373e+00 -6.238512e+00 216 190 68
2.071452e+00 -2.459520e+00 -1.136950e+01 95 85 102
2.588189e+00 -3.078562e+00 -9.836161e+00 53 42 52
2.310384e+00 -3.526212e+00 -1.066637e+01 37 33 48
1.197524e-01 1.326716e+00 -5.743586e+00 93 2 5
2.247968e+00 1.551952e+00 -5.531655e+00 194 169 114
3.087609e-01 1.225096e+00 -5.574369e+00 163 18 28
4.380502e-01 1.051898e+00 -5.524132e+00 171 150 172
2.173266e-01 6.534608e-01 -5.379124e+00 218 203 220
-4.551059e-01 4.719172e-01 -4.650691e+00 107 54 70
8.296627e-01 5.716640e-01 -5.478023e+00 95 0 2
-6.898999e-01 2.977240e-01 -4.610376e+00 208 146 165
9.849025e-01 1.001176e-01 -5.541885e+00 73 5 8
2.266440e+00 -4.091109e-02 -5.700330e+00 219 194 130
2.215833e+00 -9.927970e-01 -5.812729e+00 204 197 104
9.779931e-02 1.037431e+00 -5.559241e+00 91 0 1
4.915302e-01 9.706989e-01 -5.524293e+00 163 18 29
2.204262e+00 9.032701e-01 -5.893723e+00 214 179 57
4.029802e-01 5.056284e-01 -5.382315e+00 70 6 6
1.335804e+00 6.032700e-01 -5.723469e+00 164 21 25
-9.667659e-01 2.515049e-01 -4.810964e+00 244 193 206
3.408281e-01 -2.796893e-02 -5.844847e+00 197 32 55
-7.247601e-01 4.240848e-01 -4.629315e+00 186 201 240
9.905248e-01 5.787138e-01 -5.479191e+00 212 193 208
9.905248e-01 5.787138e-01 -5.479191e+00 212 193 208
1.288729e+00 2.453277e-01 -5.522511e+00 188 119 132
1.029564e+00 4.610218e-02 -5.468396e+00 180 116 131
1.193764e+00 -1.536868e-01 -5.219109e+00 212 144 156
-7.775686e-01 6.411924e-01 -4.584975e+00 192 206 241
-6.001490e-01 3.738713e-01 -4.662199e+00 200 140 158
1.224501e-01 3.807863e-01 -5.474082e+00 152 22 32
8.664347e-01 1.064351e-01 -5.609837e+00 210 178 197
-7.143211e-01 -1.514477e-01 -5.013237e+00 23 24 29
-7.392660e-01 5.403401e-01 -4.579743e+00 20 27 44
-7.392660e-01 5.403401e-01 -4.579743e+00 20 27 44
-7.392660e-01 5.403401e-01 -4.579743e+00 20 27 44
-1.672680e+00 3.425527e+00 -1.064587e+01 97 44 18
-3.380508e+00 3.811712e+00 -1.175612e+01 143 85 86
-4.872829e+00 3.733069e+00 -1.150535e+01 128 70 58
-4.872829e+00 3.733069e+00 -1.150535e+01 128 70 58
-4.692106e+00 3.702823e+00 -1.144629e+01 135 75 58
-5.260900e+00 3.654458e+00 -1.130834e+01 111 38 15
-5.260900e+00 3.654458e+00 -1.130834e+01 111 38 15
-4.721976e+00 3.670033e+00 -1.150844e+01 125 48 26
-5.320594e+00 3.632935e+00 -1.138353e+01 118 62 55
-5.320594e+00 3.632935e+00 -1.138353e+01 118 62 55
-4.729991e+00 3.615091e+00 -1.146624e+01 135 72 66
-4.882762e+00 3.576894e+00 -1.146199e+01 123 47 25
-4.862796e+00 3.531593e+00 -1.129878e+01 123 46 20
-4.862796e+00 3.531593e+00 -1.129878e+01 123 46 20
-3.653178e+00 3.589834e+00 -1.169712e+01 132 53 29
-5.341685e+00 3.557287e+00 -1.146688e+01 123 70 69
-5.341685e+00 3.557287e+00 -1.146688e+01 123 70 69
-4.954761e+00 3.512112e+00 -1.139485e+01 129 71 70
-3.199874e+00 3.549171e+00 -1.179548e+01 141 90 81
-3.792154e+00 3.545126e+00 -1.182737e+01 130 56 28
-3.694377e+00 3.520831e+00 -1.174812e+01 129 58 43
-5.312337e+00 3.429332e+00 -1.138577e+01 125 72 64
-5.150194e+00 3.432236e+00 -1.142543e+01 128 72 58
-5.150194e+00 3.432236e+00 -1.142543e+01 128 72 58
1.851678e+00 1.928717e+00 -6.599946e+00 101 76 44
2.301967e+00 1.604128e+00 -5.451299e+00 195 164 83
2.301967e+00 1.604128e+00 -5.451299e+00 195 164 83
-3.764561e+00 3.437984e+00 -1.176560e+01 136 56 30
-3.764561e+00 3.437984e+00 -1.176560e+01 136 56 30
-3.771748e+00 3.373660e+00 -1.166213e+01 143 79 73
-1.358389e+00 2.944709e+00 -1.125658e+01 70 31 17
1.413221e+00 1.403256e+00 -5.361683e+00 148 108 118
2.259146e+00 1.394401e+00 -5.556299e+00 199 146 52
1.782793e-01 1.404076e+00 -5.727244e+00 157 20 29
-8.521329e-01 2.241269e+00 -9.670752e+00 35 26 28
4.243630e-01 1.060500e+00 -5.523327e+00 225 194 213
-6.782819e-01 8.775856e-01 -4.579093e+00 207 155 167
-5.574221e-01 8.459859e-01 -4.601073e+00 196 145 161
-8.266647e-01 8.107911e-01 -4.577390e+00 192 143 161
-7.035805e-01 8.090709e-01 -4.566666e+00 216 161 173
7.869691e-02 9.447801e-01 -5.572021e+00 157 16 22
4.160898e-01 9.224035e-01 -5.505823e+00 197 134 154
-6.059739e-01 7.393972e-01 -4.554776e+00 146 87 106
-7.666562e-02 8.035533e-01 -5.440346e+00 120 11 14
1.995791e+00 8.467529e-01 -5.746773e+00 172 117 124
-6.087607e-01 6.739164e-01 -4.555818e+00 216 151 165
1.450297e+00 8.002677e-01 -5.723743e+00 132 12 11
-4.972516e-01 6.530419e-01 -4.580557e+00 235 171 178
-8.874788e-01 6.033814e-01 -4.552956e+00 239 176 188
-3.384983e-01 5.618802e-01 -4.703710e+00 202 154 165
6.808128e-02 5.855538e-01 -5.334953e+00 193 170 185
-3.798137e-01 4.408324e-01 -4.609959e+00 177 118 132
2.075527e+00 5.519965e-01 -6.168571e+00 138 85 16
-3.834859e-01 4.185594e-01 -4.581148e+00 187 133 147
-8.268892e-01 2.921964e-01 -4.655328e+00 217 155 166
-3.780259e-01 2.844926e-01 -4.614545e+00 216 163 174
2.409870e+00 -1.199856e-01 -5.299935e+00 228 196 207
2.149409e+00 -1.725038e-01 -6.020619e+00 174 144 32
5.151074e-01 -1.696839e-01 -5.891524e+00 186 32 41
2.017541e+00 -2.281657e-01 -6.058915e+00 179 127 103
1.007464e+00 -2.772560e-01 -5.339860e+00 207 143 156
2.376254e+00 -3.908693e-01 -5.382515e+00 230 189 193
2.106285e+00 -5.009340e-01 -6.123952e+00 177 147 42
2.121518e+00 -1.986716e+00 -1.101810e+01 91 79 87
2.121518e+00 -1.986716e+00 -1.101810e+01 91 79 87
2.257685e+00 -1.994617e+00 -1.076242e+01 71 60 79
2.218166e+00 -9.910116e-01 -5.817575e+00 197 196 105
2.084189e+00 -2.180997e+00 -1.129365e+01 68 55 68
2.203320e+00 -1.662741e+00 -8.346196e+00 177 164 132
1.323254e+00 -2.964811e+00 -1.372189e+01 45 36 39
1.332366e+00 -2.984208e+00 -1.353298e+01 64 56 68
1.893464e+00 -2.606807e+00 -1.196184e+01 60 48 58
2.394986e+00 -2.368263e+00 -1.045256e+01 101 91 104
2.335032e+00 -2.500263e+00 -1.051505e+01 64 53 67
2.335032e+00 -2.500263e+00 -1.051505e+01 64 53 67
1.126823e+00 -3.600383e+00 -1.435673e+01 32 27 34
1.804738e+00 -3.177466e+00 -1.229157e+01 76 72 86
1.922967e+00 -3.030012e+00 -1.179139e+01 89 85 100
2.371249e+00 -2.815602e+00 -1.042075e+01 57 46 59
1.504250e+00 -3.661773e+00 -1.322114e+01 58 54 67
1.792717e+00 -3.440035e+00 -1.231172e+01 44 36 48
2.044109e+00 -3.233186e+00 -1.158570e+01 91 78 87
2.189953e+00 -3.102309e+00 -1.112559e+01 54 48 58
2.570101e+00 -2.714349e+00 -9.832608e+00 46 35 44
1.192708e+00 -4.170965e+00 -1.434876e+01 42 33 36
1.926032e+00 -3.451770e+00 -1.187374e+01 52 47 69
2.509903e+00 -2.920532e+00 -1.008064e+01 79 70 88
2.723107e+00 -2.854267e+00 -9.396735e+00 118 109 127
2.578146e+00 -3.165541e+00 -9.976087e+00 91 78 88
2.873600e+00 -2.865051e+00 -8.964435e+00 56 47 63
1.559555e+00 -4.338245e+00 -1.311881e+01 45 43 54
2.169922e+00 -3.671681e+00 -1.099572e+01 88 85 102
9.522343e-01 -5.153059e+00 -1.471930e+01 48 48 58
2.185417e+00 -3.793837e+00 -1.105451e+01 89 88 105
1.443358e+00 -4.701404e+00 -1.346231e+01 21 20 25
-3.786325e+00 3.827702e+00 -1.172411e+01 147 93 87
-5.168158e+00 3.654869e+00 -1.132766e+01 115 40 24
2.263937e+00 1.613921e+00 -5.470918e+00 197 170 94
6.566428e-01 1.600703e+00 -5.790976e+00 176 23 34
-1.413068e+00 2.976663e+00 -1.112357e+01 72 24 13
7.426789e-01 1.475163e+00 -5.792225e+00 118 1 4
1.195247e+00 1.405503e+00 -5.728234e+00 186 135 149
-7.479838e-01 8.250960e-01 -4.605450e+00 212 154 170
2.879879e-02 9.883078e-01 -5.644552e+00 76 1 0
-3.484091e-01 7.673381e-01 -4.724667e+00 50 20 17
-5.263281e-01 7.491306e-01 -4.592949e+00 228 163 173
2.247925e+00 8.957582e-01 -5.659210e+00 215 184 100
1.146473e-01 8.322497e-01 -5.492187e+00 184 28 41
-5.454563e-01 6.770788e-01 -4.563088e+00 175 117 131
-4.831684e-01 6.288183e-01 -4.596600e+00 237 174 184
5.340780e-02 7.080726e-01 -5.390937e+00 157 20 33
2.158666e-01 6.961186e-01 -5.382915e+00 71 5 13
4.171025e-01 6.526434e-01 -5.358568e+00 243 214 220
6.630486e-01 6.527282e-01 -5.459963e+00 167 20 29
2.073468e-01 6.108467e-01 -5.345348e+00 75 20 46
2.317699e+00 6.313948e-01 -5.537861e+00 211 158 64
-6.339216e-01 4.890274e-01 -4.593703e+00 183 160 191
-3.498449e-01 4.274258e-01 -4.634179e+00 189 126 142
9.319240e-02 4.006065e-01 -5.462099e+00 211 43 71
-5.254067e-01 3.286736e-01 -4.553493e+00 240 184 194
-4.883640e-01 2.898070e-01 -4.577170e+00 240 183 198
2.040380e+00 3.220827e-01 -6.318660e+00 175 140 44
-3.777761e-01 2.436662e-01 -4.604624e+00 212 159 172
7.686505e-01 2.305658e-01 -5.741506e+00 209 36 57
7.975049e-01 2.283067e-01 -5.695043e+00 214 37 60
1.467703e+00 9.013902e-02 -5.246289e+00 207 146 155
2.404093e+00 -1.574021e-01 -5.310659e+00 234 194 197
2.065642e+00 -2.348125e-01 -6.098158e+00 120 75 16
1.232741e+00 -1.830153e-01 -5.226363e+00 217 154 158
2.401092e+00 -2.055582e-01 -5.265936e+00 231 191 211
2.088296e+00 -2.700468e-01 -6.089736e+00 97 62 2
1.231467e+00 -2.106294e-01 -5.240287e+00 188 125 145
5.965752e-01 -2.707468e-01 -5.576462e+00 185 30 48
2.388771e+00 -2.723175e-01 -5.346488e+00 227 195 196
1.961654e+00 -4.601941e-01 -6.400080e+00 228 192 72
2.371425e+00 -4.291402e-01 -5.401457e+00 231 184 196
2.372042e+00 -5.064856e-01 -5.429555e+00 224 69 105
2.216589e+00 -1.889789e+00 -8.308981e+00 113 98 79
2.352953e+00 -1.999897e+00 -8.012546e+00 188 178 144
1.601264e+00 -3.452810e+00 -1.289074e+01 88 85 104
1.998440e+00 -3.255711e+00 -1.166147e+01 56 47 53
2.691179e+00 -2.644031e+00 -9.494922e+00 58 41 44
2.691179e+00 -2.644031e+00 -9.494922e+00 58 41 44
9.569747e-01 -4.372583e+00 -1.486638e+01 10 10 12
2.114373e+00 -3.437822e+00 -1.123461e+01 84 78 96
-2.228542e+00 -7.100873e+00 -2.077099e+01 80 73 88
2.604557e+00 -3.130754e+00 -9.672871e+00 117 111 134
1.545704e+00 -4.490488e+00 -1.311220e+01 38 35 48
1.545704e+00 -4.490488e+00 -1.311220e+01 38 35 48
-2.179691e+00 -7.620653e+00 -2.133195e+01 55 53 69
-3.670008e+00 3.828626e+00 -1.157751e+01 138 48 24
3.199632e-01 1.662115e+00 -5.766421e+00 115 8 12
2.125383e+00 1.601823e+00 -5.945858e+00 181 130 43
3.763001e-01 1.503894e+00 -5.738047e+00 129 2 6
2.099183e+00 1.587960e+00 -5.976228e+00 173 139 72
-5.445003e-01 2.350796e+00 -9.647278e+00 12 10 10
1.189526e+00 1.079832e+00 -5.178667e+00 185 131 143
1.223189e+00 1.207139e+00 -5.867496e+00 132 11 16
1.271721e+00 1.112707e+00 -5.820600e+00 174 24 37
1.001064e-02 9.561552e-01 -5.609949e+00 115 11 13
-8.656703e-01 7.382877e-01 -4.558317e+00 229 167 181
1.850944e-01 8.192810e-01 -5.487934e+00 181 25 39
-6.647894e-01 6.897677e-01 -4.542054e+00 235 173 186
-6.980232e-01 6.724714e-01 -4.565228e+00 226 155 168
1.136465e-01 7.704012e-01 -5.473676e+00 113 3 6
-5.076544e-01 6.342852e-01 -4.575246e+00 170 104 125
4.770479e-01 7.064208e-01 -5.349215e+00 242 226 228
3.422293e-01 6.908313e-01 -5.293636e+00 218 198 209
-6.358993e-01 6.000876e-01 -4.615384e+00 246 229 240
-4.838062e-01 5.884346e-01 -4.591069e+00 189 126 143
-4.838062e-01 5.884346e-01 -4.591069e+00 189 126 143
1.427071e+00 7.125000e-01 -5.751878e+00 163 24 31
-2.327315e-02 6.465679e-01 -5.329753e+00 210 35 60
1.181783e+00 6.444682e-01 -5.602292e+00 148 18 24
1.406140e+00 6.419702e-01 -5.730364e+00 162 24 28
-3.904057e-01 5.262997e-01 -4.655910e+00 226 170 182
4.114960e-01 5.699451e-01 -5.413838e+00 158 25 44
1.942263e+00 6.024006e-01 -6.231853e+00 128 70 63
-2.780636e-01 4.549490e-01 -4.642434e+00 207 154 169
-7.851603e-01 4.260852e-01 -4.575996e+00 161 178 219
-2.650384e-01 3.938123e-01 -4.700991e+00 176 116 134
5.439237e-01 2.962203e-01 -5.624550e+00 222 40 64
1.180732e+00 2.940893e-01 -5.729067e+00 185 31 43
5.131784e-01 2.632003e-01 -5.610380e+00 125 4 14
1.123799e+00 6.855438e-02 -5.383870e+00 184 123 138
-4.588589e-01 7.535090e-02 -4.622079e+00 242 194 208
-5.888525e-01 3.869114e-02 -4.613289e+00 249 199 210
-4.228469e-01 -6.534240e-03 -4.763604e+00 228 179 190
-8.428145e-01 -6.111803e-02 -4.961708e+00 230 162 175
5.623593e-01 -1.637642e-01 -5.729112e+00 173 27 36
2.033886e+00 -1.999329e-01 -6.082730e+00 113 69 10
7.366075e-01 -1.894154e-01 -5.457689e+00 190 29 45
7.714343e-01 -3.221817e-01 -5.474994e+00 196 30 48
1.979475e+00 -7.407093e-01 -6.415289e+00 219 187 72
1.825091e+00 -1.024438e+00 -6.682944e+00 204 181 69
1.177126e+00 -2.292614e+00 -1.220756e+01 121 95 72
1.122341e-01 -2.587984e+00 -1.241476e+01 107 80 72
1.608289e+00 -2.768488e+00 -1.263248e+01 47 39 44
1.183095e+00 -3.157604e+00 -1.401367e+01 44 38 47
-4.874964e-01 -3.112540e+00 -1.314519e+01 106 82 85
-1.505481e+00 -3.272009e+00 -1.347944e+01 85 77 89
1.919244e+00 -3.280421e+00 -1.188849e+01 51 46 60
2.436949e+00 -2.883174e+00 -1.030388e+01 60 52 63
2.436949e+00 -2.883174e+00 -1.030388e+01 60 52 63
2.621128e+00 -2.752057e+00 -9.714922e+00 60 46 62
5.801705e-01 -4.154427e+00 -1.399356e+01 12 12 12
2.754064e+00 -2.734615e+00 -9.236122e+00 56 44 54
6.928771e-01 -4.454597e+00 -1.446262e+01 10 10 10
6.928771e-01 -4.454597e+00 -1.446262e+01 10 10 10
2.276219e+00 -3.822908e+00 -1.087616e+01 84 79 98
-3.107478e+00 3.550462e+00 -1.182416e+01 136 51 17
-3.107478e+00 3.550462e+00 -1.182416e+01 136 51 17
4.278758e-01 1.505328e+00 -5.789950e+00 124 3 10
5.653425e-01 1.471852e+00 -5.705621e+00 140 8 15
2.145834e+00 1.553789e+00 -5.948892e+00 188 163 106
1.409442e+00 1.331635e+00 -5.305822e+00 127 84 93
-8.279787e-01 7.814272e-01 -4.547775e+00 152 97 120
-6.955208e-01 7.555397e-01 -4.544762e+00 224 165 176
1.350888e+00 9.091643e-01 -5.722772e+00 130 11 17
1.047956e+00 7.089540e-01 -5.576892e+00 189 32 43
2.944746e-01 6.221165e-01 -5.366830e+00 161 131 139
-2.734197e-01 3.397037e-01 -4.667046e+00 189 128 143
3.741457e-01 -2.182761e-01 -6.022045e+00 163 22 33
5.427434e-01 -2.321161e-01 -5.820864e+00 178 28 43
5.528619e-01 -1.900657e+00 -1.230057e+01 109 86 68
2.019031e+00 -1.089226e+00 -6.230133e+00 212 187 63
2.019031e+00 -1.089226e+00 -6.230133e+00 212 187 63
1.357572e+00 -2.531704e+00 -1.241707e+01 17 29 48
2.210009e+00 -1.814751e+00 -8.339187e+00 178 170 139
2.137579e+00 -3.216948e+00 -1.118489e+01 52 41 50
2.658586e+00 -3.061983e+00 -1.006920e+01 98 97 121
2.582728e+00 -3.071820e+00 -9.816193e+00 53 42 52
-1.732645e+00 3.106555e+00 -1.118908e+01 95 48 19
6.175497e-01 1.614858e+00 -5.820773e+00 64 2 0
2.267787e+00 1.343218e+00 -5.550036e+00 198 170 98
8.256135e-01 9.283701e-01 -5.589306e+00 151 15 29
-1.049640e-01 7.353945e-01 -5.369117e+00 151 13 29
2.033605e+00 7.552167e-01 -5.905049e+00 196 141 142
2.302604e+00 6.577703e-01 -5.563083e+00 214 185 121
-8.583883e-01 4.254086e-01 -4.632128e+00 241 190 207
2.110312e+00 4.750076e-01 -6.189648e+00 188 146 42
-7.856455e-01 1.833140e-01 -4.651463e+00 237 179 193
2.891973e-01 9.051682e-02 -5.969687e+00 207 30 52
2.391709e+00 -1.287095e-01 -5.350804e+00 224 38 63
4.186842e-01 -1.733434e-01 -5.927534e+00 206 32 56
2.409682e+00 -1.971602e-01 -5.313260e+00 227 178 194
2.395800e+00 -2.638318e-01 -5.314963e+00 222 182 193
2.395800e+00 -2.638318e-01 -5.314963e+00 222 182 193
1.989245e+00 -4.090409e-01 -6.099314e+00 192 140 152
1.824094e+00 -2.148073e+00 -1.201172e+01 90 77 87
4.602402e-01 -3.248955e+00 -1.304281e+01 105 80 64
2.319079e+00 -1.906873e+00 -8.068182e+00 188 174 148
2.884883e+00 -2.776437e+00 -8.947078e+00 60 49 63
1.410065e+00 -4.488182e+00 -1.352456e+01 68 65 75
2.312404e+00 -3.531552e+00 -1.067530e+01 37 33 48
8.011399e-01 -5.043030e+00 -1.483695e+01 42 42 51
-7.041851e-01 3.166487e+00 -1.019685e+01 27 17 13
2.263165e+00 1.655918e+00 -5.504189e+00 191 166 47
1.213283e+00 1.372746e+00 -5.436620e+00 134 93 110
-5.056520e-01 2.125895e+00 -9.557294e+00 26 22 21
8.287735e-01 7.750832e-01 -5.516581e+00 166 21 27
-4.037869e-02 6.943512e-01 -5.368136e+00 194 33 50
2.365619e+00 7.034394e-01 -5.435132e+00 214 159 61
-2.888823e-02 5.730436e-01 -5.438032e+00 221 210 224
1.479903e+00 5.681325e-01 -5.762604e+00 192 34 55
7.430207e-02 4.636411e-01 -5.468911e+00 228 55 94
7.430207e-02 4.636411e-01 -5.468911e+00 228 55 94
1.144988e+00 1.690511e-01 -5.510526e+00 189 122 139
6.620002e-01 -2.328291e+00 -1.212583e+01 24 23 26
1.107987e+00 -4.279529e+00 -1.463873e+01 50 44 52
2.250469e+00 -3.632778e+00 -1.095601e+01 74 72 95
4.431335e-02 1.112054e+00 -5.693607e+00 163 14 25
8.869291e-01 5.288087e-01 -5.424985e+00 212 196 202
8.869291e-01 5.288087e-01 -5.424985e+00 212 196 202
2.271792e+00 3.801364e-01 -5.579368e+00 217 190 121
-6.628046e-02 2.676223e-01 -5.556552e+00 230 212 228
-1.003428e+00 1.512043e-01 -4.855207e+00 232 158 173
2.141351e+00 -6.691551e-01 -6.212479e+00 208 183 76
2.138834e-01 -2.582248e+00 -1.230443e+01 101 75 60
-1.819854e+00 -2.835819e+00 -1.249568e+01 85 82 101
3.229979e-01 -3.467488e+00 -1.327508e+01 9 9 9
2.484291e+00 -2.725748e+00 -1.012408e+01 100 96 118
-2.927830e+00 3.059828e+00 -1.204946e+01 24 22 27
6.723807e-01 1.057400e+00 -5.582378e+00 128 9 12
1.366727e+00 3.547733e-01 -5.645892e+00 67 9 10
1.284877e-02 2.299000e-01 -5.647190e+00 199 31 51
1.747749e+00 -9.755566e-01 -6.902770e+00 200 180 66
-1.259038e+00 -2.918177e+00 -1.255319e+01 58 58 69
9.775666e-01 -3.777039e+00 -1.408148e+01 51 49 60
2.491289e+00 -3.341938e+00 -1.027704e+01 72 66 88
6.432279e-02 1.429763e+00 -5.825260e+00 160 15 26
2.338408e+00 5.843050e-01 -5.518876e+00 214 155 47
-3.022823e-03 3.358846e-01 -5.498593e+00 235 234 242
2.002838e+00 -5.336698e-01 -6.269753e+00 218 185 69
1.466837e+00 -4.202217e+00 -1.244608e+01 51 48 65
6.070618e-01 1.435229e+00 -5.775084e+00 146 12 20
5.603275e-01 1.264986e+00 -5.798150e+00 24 8 9
1.360742e+00 -4.066600e+00 -1.338859e+01 56 51 64
1.885210e+00 8.067726e-01 -6.192230e+00 192 132 142
4.310658e-02 5.367479e-01 -5.419741e+00 244 238 244
2.138423e+00 6.792158e-01 -5.925268e+00 217 166 52
9.678793e-01 -1.981399e-01 -5.411002e+00 215 147 158
2.168183e+00 1.872398e+00 -5.773931e+00 181 145 34
1.030057e-01 3.165187e+00 -1.034788e+01 6 5 5
3.494306e-01 3.140604e+00 -1.027394e+01 14 14 13
1.764829e+00 2.046622e+00 -6.815971e+00 113 88 22
2.094417e+00 1.746860e+00 -6.012641e+00 167 116 41
-1.492623e+00 3.097293e+00 -1.102194e+01 79 37 18
2.097295e+00 1.656656e+00 -5.909782e+00 178 125 35
9.125023e-01 1.566619e+00 -5.685578e+00 172 25 39
-2.362768e+00 2.981298e+00 -1.167577e+01 91 86 97
1.472767e-01 1.402407e+00 -5.813594e+00 160 19 28
-7.653471e-01 2.228657e+00 -9.666167e+00 21 17 17
1.557530e-01 1.121119e+00 -5.593363e+00 160 17 26
2.376241e+00 9.997924e-01 -5.400571e+00 203 166 88
5.388474e-01 9.243320e-01 -5.526892e+00 187 125 138
-1.057503e+00 6.869972e-01 -4.626050e+00 237 175 188
2.520159e-01 6.680214e-01 -5.354043e+00 187 157 175
4.049333e-01 6.138837e-01 -5.399490e+00 124 19 39
-4.259642e-01 4.739817e-01 -4.640489e+00 171 121 136
3.617233e-02 5.289234e-01 -5.446363e+00 231 215 227
-7.649123e-01 3.955388e-01 -4.626817e+00 234 192 216
2.343294e+00 1.369131e-01 -5.455209e+00 184 158 94
1.065868e+00 1.149981e-01 -5.476195e+00 135 60 70
1.046017e+00 5.706506e-02 -5.399550e+00 187 127 143
2.168677e+00 3.073327e-02 -5.942803e+00 167 136 16
2.168677e+00 3.073327e-02 -5.942803e+00 167 136 16
2.401032e+00 -1.360489e-01 -5.316340e+00 216 77 94
2.401032e+00 -1.360489e-01 -5.316340e+00 216 77 94
7.614494e-01 -1.487263e-01 -5.475835e+00 170 20 32
2.312094e+00 -1.772579e-01 -5.556278e+00 187 154 21
-6.559659e-01 -1.842493e-01 -4.951718e+00 163 189 229
2.149191e+00 -3.590272e-01 -5.991020e+00 168 134 18
2.391913e+00 -3.423321e-01 -5.359181e+00 208 95 124
2.377427e+00 -4.130418e-01 -5.367108e+00 211 98 137
2.369592e+00 -4.575094e-01 -5.376379e+00 210 105 133
2.369592e+00 -4.575094e-01 -5.376379e+00 210 105 133
2.393075e+00 -5.671039e-01 -5.355005e+00 241 146 70
1.904025e+00 -1.890865e+00 -1.192260e+01 66 52 59
-3.260194e-01 -2.209761e+00 -1.263062e+01 110 90 92
2.005003e+00 -1.986024e+00 -1.152032e+01 107 91 101
2.005003e+00 -1.986024e+00 -1.152032e+01 107 91 101
2.015320e+00 -2.189755e+00 -1.143386e+01 72 57 69
2.015320e+00 -2.189755e+00 -1.143386e+01 72 57 69
1.303786e+00 -2.595302e+00 -1.292726e+01 29 33 52
1.081859e+00 -3.041814e+00 -1.439173e+01 70 66 80
1.982084e+00 -2.418369e+00 -1.160695e+01 51 41 50
1.949183e+00 -2.723733e+00 -1.175105e+01 70 59 72
2.438808e+00 -2.371257e+00 -1.013896e+01 111 103 121
2.330531e+00 -2.735350e+00 -1.060511e+01 116 108 122
1.511613e+00 -3.539759e+00 -1.322311e+01 72 66 81
1.654723e+00 -3.402690e+00 -1.277259e+01 52 46 59
1.395403e+00 -3.630591e+00 -1.347896e+01 70 65 77
2.000376e+00 -3.133332e+00 -1.161320e+01 95 90 98
1.846987e+00 -3.341192e+00 -1.211887e+01 51 44 60
1.692438e+00 -3.615141e+00 -1.258067e+01 28 25 35
2.563173e+00 -2.866729e+00 -9.966392e+00 85 80 101
2.286677e+00 -3.201832e+00 -1.079193e+01 113 110 127
1.865383e+00 -3.640264e+00 -1.213762e+01 56 54 70
2.803453e+00 -2.766373e+00 -9.201847e+00 83 67 81
2.548502e+00 -3.061230e+00 -1.003519e+01 115 109 125
2.678968e+00 -2.939260e+00 -9.627133e+00 69 57 68
2.684423e+00 -2.970817e+00 -9.553100e+00 32 30 45
2.804319e+00 -2.863782e+00 -9.180304e+00 115 100 122
2.413136e+00 -3.356058e+00 -1.033135e+01 51 47 63
1.999628e+00 -3.885751e+00 -1.164769e+01 52 41 52
2.407596e+00 -3.473681e+00 -1.048189e+01 56 47 59
2.407596e+00 -3.473681e+00 -1.048189e+01 56 47 59
2.864513e+00 -3.008527e+00 -9.066562e+00 86 75 97
2.928136e+00 -2.929410e+00 -8.818617e+00 94 87 101
2.063686e+00 1.819309e+00 -6.068318e+00 158 107 35
2.051972e+00 1.836278e+00 -6.137628e+00 141 95 23
2.036681e+00 1.783262e+00 -6.048663e+00 140 107 47
6.993852e-01 1.586635e+00 -5.748040e+00 172 24 35
2.081793e+00 1.677938e+00 -6.026242e+00 144 115 63
2.282935e+00 1.355202e+00 -5.489196e+00 195 148 50
1.193362e-01 1.383769e+00 -5.796686e+00 171 24 35
4.588595e-01 1.364939e+00 -5.701395e+00 100 1 1
2.339815e+00 1.327685e+00 -5.415004e+00 202 178 111
2.353831e+00 1.228502e+00 -5.282464e+00 199 156 71
3.513372e-01 1.106566e+00 -5.500539e+00 175 23 37
3.590289e-01 9.969250e-01 -5.480093e+00 192 30 44
2.367085e+00 9.796068e-01 -5.343788e+00 215 181 109
2.263360e+00 8.847152e-01 -5.814954e+00 216 184 101
2.363901e+00 7.399248e-01 -5.422809e+00 219 185 122
2.374126e+00 7.195642e-01 -5.402275e+00 210 165 76
1.036729e+00 5.261418e-01 -5.445458e+00 205 40 72
-6.963858e-01 3.452460e-01 -4.636464e+00 246 184 198
-3.838956e-01 3.034521e-01 -4.599195e+00 224 173 182
2.207015e+00 -1.918360e-02 -5.852899e+00 209 174 47
2.356111e+00 -1.989797e-02 -5.418324e+00 221 190 75
1.100500e+00 -1.375690e-01 -5.283718e+00 198 127 145
7.178656e-01 -1.635853e-01 -5.529368e+00 150 15 21
1.296445e+00 -2.039249e-01 -5.220443e+00 186 128 142
2.128186e+00 -3.990996e-01 -6.036878e+00 226 194 61
2.055156e+00 -5.856791e-01 -6.212069e+00 161 170 128
2.091973e+00 -6.172299e-01 -6.143255e+00 165 138 43
1.662900e+00 -8.869842e-01 -7.059921e+00 199 176 75
2.147473e+00 -1.299395e+00 -5.901104e+00 202 152 45
2.473966e+00 -2.516435e+00 -1.009123e+01 67 55 65
1.354890e+00 -3.738844e+00 -1.375238e+01 42 35 44
1.980048e+00 -3.428076e+00 -1.179014e+01 87 81 96
2.166867e+00 -3.380367e+00 -1.117300e+01 48 44 54
2.522841e+00 -3.126348e+00 -1.008799e+01 66 50 61
2.259222e+00 -3.426750e+00 -1.091107e+01 57 46 60
2.716620e+00 -2.996964e+00 -9.428198e+00 53 44 58
2.624966e+00 -3.162654e+00 -9.755344e+00 117 111 134
2.838495e+00 -3.025506e+00 -9.129206e+00 123 117 137
2.446076e+00 -3.474542e+00 -1.032595e+01 94 91 109
2.575169e+00 -3.420080e+00 -9.939645e+00 105 99 117
2.397220e+00 1.651172e+00 -5.215033e+00 174 153 40
2.397220e+00 1.651172e+00 -5.215033e+00 174 153 40
-1.678322e+00 2.938018e+00 -1.143013e+01 26 14 15
2.177074e+00 1.495977e+00 -5.729178e+00 192 141 45
2.177074e+00 1.495977e+00 -5.729178e+00 192 141 45
2.271539e+00 1.385530e+00 -5.545196e+00 199 150 49
2.367651e+00 1.189939e+00 -5.281611e+00 204 178 120
-6.448813e-01 9.172065e-01 -4.619317e+00 157 124 143
1.214459e+00 9.764070e-01 -5.742500e+00 99 1 7
1.039293e+00 8.152824e-01 -5.578306e+00 161 20 28
-5.572250e-01 6.544701e-01 -4.562742e+00 221 165 178
1.054749e+00 6.145886e-01 -5.425099e+00 101 6 12
2.074356e+00 5.598006e-01 -6.159884e+00 147 94 24
2.365712e+00 4.010237e-01 -5.410825e+00 223 189 125
8.393841e-01 6.342112e-02 -5.613768e+00 223 198 214
1.110305e+00 -1.779427e-01 -5.306739e+00 204 133 146
5.867821e-01 -1.586437e+00 -1.240126e+01 117 88 63
1.773156e+00 -1.780444e+00 -1.225736e+01 76 54 63
2.328561e+00 -3.416472e+00 -1.063107e+01 57 53 69
2.328561e+00 -3.416472e+00 -1.063107e+01 57 53 69
2.122351e+00 1.751840e+00 -5.928601e+00 184 157 43
2.183058e+00 1.569337e+00 -5.809285e+00 191 165 78
-2.270340e+00 3.012111e+00 -1.157282e+01 19 17 20
4.636553e-01 1.466550e+00 -5.713589e+00 122 4 9
1.042449e-01 1.251852e+00 -5.703715e+00 139 13 17
1.115880e+00 1.303339e+00 -5.981419e+00 144 18 24
4.684667e-01 1.095642e+00 -5.524763e+00 169 21 31
-7.808404e-01 6.588936e-01 -4.584905e+00 243 231 243
8.417645e-01 7.098877e-01 -5.516716e+00 197 30 47
1.404920e+00 6.852825e-01 -5.766125e+00 104 9 6
8.993964e-01 -1.013225e-02 -5.544539e+00 51 9 18
2.157551e+00 -2.976955e+00 -1.111922e+01 51 48 60
2.773664e+00 -3.189405e+00 -9.343841e+00 72 50 58
1.059800e+00 7.684804e-01 -5.555065e+00 154 14 25
8.056009e-01 6.258214e-01 -5.481712e+00 183 26 44
8.056009e-01 6.258214e-01 -5.481712e+00 183 26 44
1.418203e+00 5.267696e-01 -5.772227e+00 118 9 11
1.362217e+00 4.870099e-01 -5.754758e+00 159 24 28
1.358390e+00 4.868221e-01 -5.737884e+00 159 24 28
8.020514e-01 4.443451e-02 -5.640297e+00 80 4 9
-2.684157e-01 -1.846910e+00 -1.243361e+01 130 110 117
1.803715e+00 -1.926588e+00 -1.218970e+01 69 55 55
5.109449e-01 -4.746070e+00 -1.408669e+01 4 4 4
1.690612e-01 9.995394e-01 -5.510766e+00 169 18 30
2.254940e-02 7.516560e-01 -5.387119e+00 91 1 7
1.670213e+00 -1.981586e+00 -1.239625e+01 115 90 66
2.357379e+00 1.303225e+00 -5.277202e+00 199 175 113
4.047915e-01 5.081885e-01 -5.361039e+00 72 3 2
7.717269e-01 1.265455e-01 -5.620092e+00 238 231 239
-6.518437e-01 5.792439e-01 -4.581658e+00 161 190 228
-8.123364e-01 -1.789625e-02 -4.880872e+00 242 188 200
7.102347e-01 3.135456e-01 -5.521311e+00 203 29 53
7.102347e-01 3.135456e-01 -5.521311e+00 203 29 53
2.258717e+00 -1.480348e+00 -5.660301e+00 215 38 66
4.862416e-01 3.131436e+00 -1.028786e+01 9 9 9
6.970343e-02 3.136613e+00 -1.054595e+01 8 8 8
1.963332e+00 2.192304e+00 -6.398062e+00 197 171 61
-6.109651e-02 2.243098e+00 -9.685092e+00 27 22 19
2.118714e+00 1.638812e+00 -5.947358e+00 218 182 97
8.409994e-01 1.519021e+00 -5.785792e+00 214 35 54
-2.070738e+00 2.074610e+00 -1.182735e+01 71 57 57
-2.802801e+00 2.170107e+00 -1.340248e+01 94 79 89
-2.698457e+00 1.868341e+00 -1.283249e+01 90 74 84
-2.819002e+00 1.831744e+00 -1.308917e+01 54 50 55
-8.894537e-01 8.465241e-01 -4.618408e+00 242 187 200
-9.110110e-01 8.084416e-01 -4.605727e+00 249 196 203
-9.255304e-01 7.557942e-01 -4.590158e+00 225 158 166
-8.136205e-01 7.509794e-01 -4.563132e+00 254 194 202
-6.395847e-01 7.541099e-01 -4.557031e+00 218 164 174
-6.415007e-01 7.041412e-01 -4.547391e+00 241 173 186
-5.622822e-01 6.990310e-01 -4.563140e+00 199 130 142
-9.156714e-01 6.478884e-01 -4.564903e+00 253 194 203
-8.355001e-01 6.378058e-01 -4.557615e+00 248 202 217
3.733733e-01 6.452648e-01 -5.337172e+00 155 106 126
2.324147e+00 6.846624e-01 -5.459340e+00 247 210 120
-8.592361e-01 5.096351e-01 -4.588779e+00 211 190 228
-5.060243e-01 5.279958e-01 -4.591981e+00 255 216 225
-5.596359e-01 4.189760e-01 -4.619470e+00 203 130 145
2.199761e+00 4.605403e-01 -5.464831e+00 242 192 94
-6.052259e-01 3.886058e-01 -4.604494e+00 218 145 162
-7.526632e-01 3.550570e-01 -4.630047e+00 248 196 208
-7.740212e-01 3.484353e-01 -4.651411e+00 229 165 184
-8.355639e-01 3.107203e-01 -4.675952e+00 253 203 211
-4.754719e-01 3.381667e-01 -4.558667e+00 248 202 215
-7.956208e-01 2.579696e-01 -4.663277e+00 253 193 205
-6.808639e-01 2.291501e-01 -4.576224e+00 255 203 216
-1.010774e+00 1.700978e-01 -4.870472e+00 255 201 209
5.781273e-01 1.331265e-01 -5.720195e+00 249 55 98
-8.086952e-01 1.881637e-01 -4.640037e+00 255 201 212
-3.711393e-01 2.039051e-01 -4.645234e+00 250 200 209
-7.648306e-01 1.492568e-01 -4.630108e+00 236 173 188
-3.727326e-01 1.387650e-01 -4.680366e+00 243 205 211
9.504269e-01 7.216710e-02 -5.557261e+00 203 153 169
-7.216136e-01 1.097900e-01 -4.637620e+00 251 208 218
-8.881315e-01 -5.760592e-03 -4.922280e+00 255 219 224
5.299253e-01 -1.350009e-01 -5.938317e+00 166 28 34
1.198245e+00 -2.706995e-02 -5.293171e+00 238 174 181
-8.060429e-01 -9.508567e-02 -4.966899e+00 118 141 191
-7.991621e-01 -1.390838e-01 -5.011255e+00 155 204 236
1.144628e+00 -2.381410e-01 -5.322380e+00 164 92 104
-7.630380e-01 -2.937597e-01 -5.192938e+00 237 189 200
1.044550e+00 -2.440260e-01 -5.309004e+00 213 141 155
2.144291e+00 -3.961091e-01 -6.002445e+00 206 172 45
1.915086e+00 -2.092149e+00 -1.180170e+01 74 49 49
2.058770e+00 -7.402422e-01 -6.171004e+00 196 170 45
2.058770e+00 -7.402422e-01 -6.171004e+00 196 170 45
2.095366e+00 -7.538421e-01 -6.112433e+00 200 172 44
2.241113e+00 -6.916849e-01 -5.739285e+00 239 211 71
2.011969e+00 -2.387688e+00 -1.149859e+01 118 101 112
2.306250e+00 -2.249665e+00 -1.067243e+01 141 131 142
1.672895e+00 -2.889882e+00 -1.274802e+01 74 61 72
2.218646e+00 -2.282381e+00 -1.074258e+01 97 81 93
1.241953e+00 -3.285877e+00 -1.375092e+01 74 63 73
1.363489e+00 -3.418565e+00 -1.363528e+01 71 60 76
1.990968e+00 -2.852917e+00 -1.164657e+01 90 83 99
1.990968e+00 -2.852917e+00 -1.164657e+01 90 83 99
2.021959e+00 -2.821198e+00 -1.150295e+01 132 121 135
1.282573e+00 -3.711424e+00 -1.382001e+01 104 94 108
1.282573e+00 -3.711424e+00 -1.382001e+01 104 94 108
2.311657e+00 -2.702369e+00 -1.064811e+01 80 68 82
2.453404e+00 -2.566924e+00 -1.015882e+01 128 115 128
2.276551e+00 -2.926144e+00 -1.075423e+01 76 68 83
1.838279e+00 -3.462237e+00 -1.217475e+01 78 64 77
2.243708e+00 -3.172187e+00 -1.088479e+01 116 111 129
2.129022e+00 -1.322057e+00 -5.884804e+00 231 180 51
2.534051e+00 -2.911187e+00 -9.987998e+00 140 131 151
1.751439e+00 -4.217366e+00 -1.239880e+01 106 103 119
2.812773e+00 -3.028812e+00 -9.187249e+00 105 97 120
-1.150291e+00 3.146436e+00 -1.114113e+01 80 33 9
-3.699944e+00 3.090617e+00 -1.241600e+01 124 114 131
6.779133e-01 2.860260e+00 -1.032395e+01 13 12 11
2.165129e+00 1.895824e+00 -5.726737e+00 216 173 52
2.165129e+00 1.895824e+00 -5.726737e+00 216 173 52
-6.686199e-01 2.138541e+00 -9.578045e+00 31 28 21
2.142101e+00 1.676164e+00 -5.867985e+00 223 187 110
2.295730e+00 1.567598e+00 -5.412971e+00 226 177 54
2.148699e+00 1.572721e+00 -5.892616e+00 217 170 66
2.148699e+00 1.572721e+00 -5.892616e+00 217 170 66
2.291224e+00 1.528618e+00 -5.507640e+00 223 180 77
5.817125e-02 9.313080e-01 -5.562514e+00 132 3 7
-1.022091e+00 6.908678e-01 -4.620159e+00 250 191 198
1.199726e+00 7.014190e-01 -5.560688e+00 216 40 62
1.247905e+00 7.039896e-01 -5.556697e+00 209 40 57
-5.854416e-01 6.104081e-01 -4.563980e+00 254 206 219
4.322689e-01 5.842494e-01 -5.336619e+00 249 53 103
-5.647552e-01 5.280653e-01 -4.577268e+00 255 208 220
-5.981980e-01 4.975005e-01 -4.549482e+00 252 200 208
2.100228e+00 4.826777e-01 -6.033929e+00 229 187 62
-6.503896e-01 3.658764e-01 -4.622606e+00 255 207 215
-7.741090e-01 3.274641e-01 -4.626048e+00 255 213 219
-8.097612e-01 3.141903e-01 -4.651781e+00 241 173 188
-8.537293e-01 2.887324e-01 -4.691086e+00 254 201 212
-9.984934e-01 2.447115e-01 -4.829956e+00 255 220 228
-7.087466e-01 2.556578e-01 -4.598781e+00 244 188 197
-1.106468e+00 1.419202e-01 -4.876026e+00 251 199 212
1.667817e+00 2.121909e-01 -5.255102e+00 198 148 84
-3.356084e-01 1.354500e-01 -4.696346e+00 252 212 219
4.651357e-01 -1.054497e-01 -5.896873e+00 223 38 59
5.073841e-01 -1.524527e-01 -5.899379e+00 211 37 60
1.222982e+00 -4.023043e-02 -5.298652e+00 156 83 90
6.690463e-01 -1.764323e-01 -5.543394e+00 171 20 27
2.408145e+00 -2.621820e-01 -5.306168e+00 252 217 234
2.116417e+00 -4.832584e-01 -6.084185e+00 246 218 83
2.030578e+00 -7.181345e-01 -6.245482e+00 179 192 148
2.030578e+00 -7.181345e-01 -6.245482e+00 179 192 148
1.907715e+00 -2.226799e+00 -1.188687e+01 82 63 67
2.258814e+00 -2.205883e+00 -1.076954e+01 152 150 170
2.202371e+00 -3.429806e+00 -1.104944e+01 85 72 86
2.893207e+00 -2.932065e+00 -8.867024e+00 83 71 88
-3.702655e-01 2.268787e+00 -9.589350e+00 33 24 19
-1.273625e+00 2.444903e+00 -1.115421e+01 56 34 31
-1.674532e-02 2.294118e+00 -9.739185e+00 42 29 23
2.175754e+00 1.846267e+00 -6.182063e+00 209 157 57
8.130963e-01 1.642317e+00 -5.699998e+00 171 22 33
2.164400e+00 1.727980e+00 -5.820589e+00 222 192 117
-1.740200e+00 2.119218e+00 -1.170866e+01 110 86 91
-2.523927e+00 2.083750e+00 -1.254522e+01 92 77 84
2.264795e+00 1.526842e+00 -5.523966e+00 229 203 130
2.250274e+00 1.506818e+00 -5.558110e+00 225 174 64
5.238418e-01 1.350736e+00 -5.754821e+00 182 29 36
-2.722105e+00 1.722527e+00 -1.276535e+01 88 72 81
1.777168e-01 1.194776e+00 -5.588206e+00 115 4 7
1.777168e-01 1.194776e+00 -5.588206e+00 115 4 7
1.018978e-01 9.163776e-01 -5.529909e+00 215 36 59
-7.484512e-01 7.975040e-01 -4.568154e+00 185 120 134
-8.149915e-02 7.711368e-01 -5.381019e+00 121 6 8
-8.620823e-01 6.812689e-01 -4.552045e+00 253 207 214
2.052583e+00 6.238153e-01 -6.176067e+00 208 171 108
-4.260146e-01 4.459163e-01 -4.607401e+00 149 91 108
2.007715e+00 3.094496e-01 -6.328012e+00 89 52 3
-8.716760e-01 3.105962e-01 -4.682254e+00 233 171 184
-1.028455e+00 1.863058e-01 -4.877367e+00 255 206 215
4.087503e-01 1.669562e-01 -5.603219e+00 236 58 108
-5.875232e-01 2.252419e-01 -4.550881e+00 254 216 224
9.050696e-01 2.581229e-02 -5.586966e+00 199 158 169
-9.873741e-01 2.738559e-02 -4.923756e+00 252 231 231
4.300114e-01 -2.526310e-01 -5.950061e+00 242 53 90
2.092354e+00 -4.678216e-01 -6.133521e+00 242 217 83
2.094345e+00 -5.218697e-01 -6.043967e+00 243 216 78
2.682752e+00 -2.836905e+00 -9.398396e+00 150 139 151
2.682752e+00 -2.836905e+00 -9.398396e+00 150 139 151
2.082499e+00 -3.726169e+00 -1.143495e+01 125 111 126
2.584472e+00 -3.283232e+00 -1.002976e+01 128 117 139
2.202339e-01 2.532277e+00 -9.850513e+00 23 19 18
6.099336e-01 1.604752e+00 -5.768696e+00 94 6 3
2.173886e+00 1.706977e+00 -5.726378e+00 221 192 94
8.568185e-01 1.581903e+00 -5.680535e+00 209 36 63
2.285804e+00 1.585049e+00 -5.476930e+00 231 171 56
2.266381e-01 1.342410e+00 -5.686259e+00 176 22 28
-8.809153e-01 7.309990e-01 -4.538143e+00 250 194 206
-5.234235e-01 7.129721e-01 -4.596073e+00 252 193 204
-9.872406e-01 6.400127e-01 -4.601496e+00 246 186 197
-9.173237e-01 5.866187e-01 -4.564397e+00 255 185 198
-8.053499e-01 5.847206e-01 -4.551162e+00 221 236 249
-5.192678e-01 5.975138e-01 -4.580965e+00 249 200 213
-8.878273e-01 5.623858e-01 -4.549327e+00 253 214 221
-1.054686e+00 5.089230e-01 -4.668343e+00 255 212 217
-6.180997e-01 5.133546e-01 -4.589254e+00 233 187 217
-8.965997e-01 4.715040e-01 -4.672031e+00 251 211 215
2.365353e+00 5.288629e-01 -5.432065e+00 247 190 62
-9.967207e-01 2.892716e-01 -4.756524e+00 253 191 202
8.194801e-01 1.768341e-01 -5.640487e+00 183 39 60
1.177156e+00 -2.078394e-01 -5.323765e+00 242 184 200
7.640173e-01 -2.241058e+00 -1.214933e+01 151 126 124
1.655862e+00 -3.921446e+00 -1.274230e+01 101 96 113
2.542846e+00 -1.396484e+00 -5.535309e+00 197 169 145
1.654523e-01 2.729443e+00 -1.010322e+01 37 28 26
6.182383e-01 1.682280e+00 -5.824646e+00 190 33 44
6.182383e-01 1.682280e+00 -5.824646e+00 190 33 44
-1.846807e+00 2.486510e+00 -1.263905e+01 76 59 65
2.299708e-01 1.183550e+00 -5.561819e+00 128 9 12
2.299708e-01 1.183550e+00 -5.561819e+00 128 9 12
-2.875835e+00 9.965691e-01 -1.289789e+01 117 95 105
9.057688e-01 8.480316e-01 -5.572232e+00 200 33 51
9.633976e-01 4.892321e-01 -5.474298e+00 182 33 66
-6.904815e-01 2.983728e-01 -4.596242e+00 226 160 169
-9.015411e-01 1.150922e-02 -4.884349e+00 252 217 221
-3.567333e-01 -6.696388e-02 -4.954570e+00 250 209 218
7.373012e-01 -4.442632e+00 -1.413696e+01 14 14 14
-1.145572e-02 2.434211e+00 -9.884748e+00 13 12 11
7.535091e-01 1.538550e+00 -5.748134e+00 223 41 66
-2.709411e+00 2.006918e+00 -1.304760e+01 95 79 89
2.915234e-01 8.087205e-01 -5.484712e+00 231 42 70
1.302129e+00 1.709151e-01 -5.430291e+00 133 25 23
2.271966e+00 1.315321e-01 -5.656073e+00 239 217 139
2.216493e+00 -9.928813e-01 -5.813697e+00 231 223 104
-4.713879e+00 -3.292251e-01 -1.835689e+01 141 133 148
-1.000814e+00 4.085430e-01 -4.747673e+00 250 208 217
1.312614e+00 4.249936e-01 -5.786758e+00 204 40 55
-3.370649e+00 3.422559e+00 -1.824525e+01 51 42 44
-2.397806e+00 1.642681e+00 -1.216260e+01 123 105 114
2.939963e-01 7.284471e-01 -5.399071e+00 71 3 8
-3.438417e-01 -2.029896e-01 -5.217803e+00 159 133 138
1.550845e+00 4.072033e-01 -5.883872e+00 205 40 50
1.461522e-01 1.561373e-01 -5.419180e-01 0 255 0
1.455585e-01 1.551504e-01 -5.919047e-01 255 255 0
-4.066669e-01 7.531280e-01 -2.505932e-01 255 0 0
-4.045332e-01 7.499849e-01 -3.004487e-01 255 255 0
-9.391543e-01 3.078421e-01 -8.201743e-01 0 255 0
-9.284151e-01 3.055054e-01 -8.689514e-01 255 255 0
